<svg width="16" height="16" viewBox="0 0 16 16" fill="none" xmlns="http://www.w3.org/2000/svg">
<path d="M7.25 10.25H8.75V11.75H7.25V10.25ZM7.25 4.25H8.75V8.75H7.25V4.25ZM8 0.5C3.8525 0.5 0.5 3.875 0.5 8C0.5 9.98912 1.29018 11.8968 2.6967 13.3033C3.39314 13.9997 4.21993 14.5522 5.12987 14.9291C6.03982 15.306 7.01509 15.5 8 15.5C9.98912 15.5 11.8968 14.7098 13.3033 13.3033C14.7098 11.8968 15.5 9.98912 15.5 8C15.5 7.01509 15.306 6.03982 14.9291 5.12987C14.5522 4.21993 13.9997 3.39314 13.3033 2.6967C12.6069 2.00026 11.7801 1.44781 10.8701 1.0709C9.96018 0.693993 8.98491 0.5 8 0.5ZM8 14C6.4087 14 4.88258 13.3679 3.75736 12.2426C2.63214 11.1174 2 9.5913 2 8C2 6.4087 2.63214 4.88258 3.75736 3.75736C4.88258 2.63214 6.4087 2 8 2C9.5913 2 11.1174 2.63214 12.2426 3.75736C13.3679 4.88258 14 6.4087 14 8C14 9.5913 13.3679 11.1174 12.2426 12.2426C11.1174 13.3679 9.5913 14 8 14Z" fill="#EB5757"/>
</svg>
