<svg width="20" height="20" viewBox="0 0 20 20" fill="none" xmlns="http://www.w3.org/2000/svg">
<path d="M17.9166 8.41667H5.89908L11.1241 3.2075C11.4222 2.90935 11.5897 2.50498 11.5897 2.08333C11.5897 1.66169 11.4222 1.25732 11.1241 0.959168C10.8259 0.66102 10.4216 0.493523 9.99992 0.493523C9.57827 0.493523 9.1739 0.66102 8.87575 0.959168L0.959084 8.87583C0.814936 9.02642 0.701942 9.20398 0.626584 9.39833C0.468222 9.78382 0.468222 10.2162 0.626584 10.6017C0.701942 10.796 0.814936 10.9736 0.959084 11.1242L8.87575 19.0408C9.02294 19.1892 9.19806 19.307 9.391 19.3874C9.58395 19.4678 9.7909 19.5092 9.99992 19.5092C10.2089 19.5092 10.4159 19.4678 10.6088 19.3874C10.8018 19.307 10.9769 19.1892 11.1241 19.0408C11.2725 18.8936 11.3903 18.7185 11.4707 18.5256C11.551 18.3326 11.5924 18.1257 11.5924 17.9167C11.5924 17.7076 11.551 17.5007 11.4707 17.3078C11.3903 17.1148 11.2725 16.9397 11.1241 16.7925L5.89908 11.5833H17.9166C18.3365 11.5833 18.7392 11.4165 19.0362 11.1196C19.3331 10.8227 19.4999 10.4199 19.4999 10C19.4999 9.58008 19.3331 9.17735 19.0362 8.88042C18.7392 8.58348 18.3365 8.41667 17.9166 8.41667Z" fill="#6D2BC1"/>
</svg>
